<mxfile host="app.diagrams.net" modified="2024-03-25T01:08:22.568Z" agent="Mozilla/5.0 (Windows NT 10.0; Win64; x64) AppleWebKit/537.36 (KHTML, like Gecko) Chrome/122.0.0.0 Safari/537.36" version="24.0.7" etag="ou3S_b0RyatGCZ16kNAb" type="github">
  <diagram name="第 1 页" id="046weU8yn_X5KZRcPLGz">
    <mxGraphModel>
      <root>
        <mxCell id="0" />
        <mxCell id="1" parent="0" />
      </root>
    </mxGraphModel>
  </diagram>
</mxfile>
